<svg xmlns="http://www.w3.org/2000/svg" viewBox="0 0 512 512" role="img" aria-label="Valley Capture">
  <defs>
    <linearGradient id="surface" x1="88" y1="52" x2="430" y2="468" gradientUnits="userSpaceOnUse">
      <stop stop-color="#8C6CFF"/>
      <stop offset="0.54" stop-color="#5A43E8"/>
      <stop offset="1" stop-color="#2D67E8"/>
    </linearGradient>
    <linearGradient id="valley" x1="160" y1="174" x2="342" y2="346" gradientUnits="userSpaceOnUse">
      <stop stop-color="#FFFFFF"/>
      <stop offset="1" stop-color="#DDE8FF"/>
    </linearGradient>
  </defs>
  <rect x="28" y="28" width="456" height="456" rx="120" fill="url(#surface)"/>
  <path d="M130 155v-20c0-18 15-33 33-33h42M307 102h42c18 0 33 15 33 33v20M382 357v20c0 18-15 33-33 33h-42M205 410h-42c-18 0-33-15-33-33v-20" fill="none" stroke="#FFFFFF" stroke-width="24" stroke-linecap="round"/>
  <path d="M156 190l78 150c9 18 35 18 44 0l78-150" fill="none" stroke="url(#valley)" stroke-width="42" stroke-linecap="round" stroke-linejoin="round"/>
  <circle cx="383" cy="129" r="35" fill="#FF4966" stroke="#FFFFFF" stroke-width="12"/>
</svg>
